<svg width="37" height="37" viewBox="0 0 37 37" fill="none" xmlns="http://www.w3.org/2000/svg">
<path fill-rule="evenodd" clip-rule="evenodd" d="M7.70898 33.1169V28.5282C7.70898 25.1672 8.45723 22.2896 8.90287 20.8733C9.14526 20.1035 9.65263 19.439 10.3316 19.003L15.4144 15.7463L15.4098 3.85315C15.4098 3.64943 15.4911 3.45323 15.6356 3.3089C15.7802 3.16456 15.9759 3.08337 16.1806 3.08337H30.0632C30.4892 3.08337 30.834 3.42767 30.834 3.85315V25.407C30.834 25.8325 30.4892 26.1768 30.0632 26.1768H21.0377C20.9476 26.3554 20.8594 26.53 20.7845 26.6752C20.6235 26.9902 20.5211 27.3766 20.4639 27.893C20.1853 30.3941 18.6768 32.6117 16.426 33.8242C16.3101 33.8874 16.1851 33.9167 16.0602 33.9167C15.7862 33.9167 15.5212 33.7701 15.3812 33.5123C15.1794 33.1387 15.3195 32.6718 15.6943 32.4696C17.5266 31.4818 18.7054 29.7521 18.9312 27.7231C19.0095 27.015 19.1631 26.458 19.4145 25.9708C20.1387 24.5658 21.6909 21.3589 22.0733 20.5403C22.3699 19.9088 22.4 19.469 22.1636 19.233C21.8896 18.9594 21.4108 18.9594 21.1368 19.233L16.7335 23.6303L16.7331 23.6308L15.6868 24.6756C15.3857 24.9763 14.8979 24.9763 14.5968 24.6756C14.2957 24.3749 14.2957 23.8878 14.5968 23.5871L15.4172 22.7678L15.4152 17.5744L11.1642 20.2982C10.7833 20.5433 10.5093 20.9018 10.3723 21.3349C9.95374 22.6669 9.25065 25.3724 9.25065 28.5282V33.1169C9.25065 33.5423 8.90588 33.8866 8.47982 33.8866C8.05375 33.8866 7.70898 33.5423 7.70898 33.1169ZM29.2923 24.6372V4.62294H16.9515L16.9582 21.2289L20.0468 18.1445C20.6331 17.5579 21.5143 17.4042 22.2901 17.6219V17.1904C20.6384 17.0046 19.8501 16.2402 19.7563 16.1426C19.4597 15.8366 19.4687 15.3495 19.7758 15.0541C20.0815 14.7586 20.5708 14.7684 20.8643 15.0736L20.8648 15.074C20.8906 15.0975 21.5424 15.6923 23.0308 15.6923C23.0329 15.6923 23.0351 15.6922 23.0374 15.6921C23.0396 15.692 23.0419 15.6919 23.044 15.6919C23.0469 15.6919 23.0496 15.691 23.0523 15.6902C23.0551 15.6894 23.0579 15.6885 23.0609 15.6885C23.0633 15.6885 23.0654 15.6892 23.0675 15.6899C23.0696 15.6905 23.0716 15.6911 23.0739 15.6912C23.8532 15.6859 25.1069 15.527 25.1069 14.5497C25.1069 13.9565 24.2653 13.5792 22.9796 13.0717C21.5117 12.4921 19.684 11.7705 19.684 9.90766C19.684 8.59362 20.7506 7.60565 22.2901 7.40306V6.60602C22.2901 6.18054 22.6348 5.83624 23.0609 5.83624C23.487 5.83624 23.8317 6.18054 23.8317 6.60602V7.46047C24.9745 7.68007 25.86 8.20037 25.9064 8.22828C26.2692 8.44779 26.3866 8.91913 26.1668 9.28297C25.947 9.64681 25.4758 9.76258 25.1099 9.54683C25.0994 9.54006 24.0124 8.89958 22.8787 8.89958C22.0778 8.89958 21.2257 9.2529 21.2257 9.90766C21.2257 10.6669 22.144 11.0864 23.5472 11.6404L23.5509 11.6419C25.0029 12.2159 26.6486 12.8664 26.6486 14.5497C26.6486 15.7055 25.885 16.9251 23.8317 17.1779V19.1059C23.8317 19.1225 23.8274 19.1377 23.8231 19.1529C23.8198 19.1645 23.8165 19.1762 23.8151 19.1885C23.9201 19.6988 23.8635 20.3533 23.4704 21.192C23.2224 21.7216 22.49 23.2399 21.8029 24.6372H29.2923Z" fill="#257FA4"/>
</svg>
