<svg width="37" height="37" viewBox="0 0 37 37" fill="none" xmlns="http://www.w3.org/2000/svg">
<path fill-rule="evenodd" clip-rule="evenodd" d="M33.1465 10.7916H26.9798C26.5538 10.7916 26.209 11.1364 26.209 11.5625V13.5071L20.8523 11.3645C19.8647 10.9693 18.8409 10.5605 17.4407 11.0604L14.9529 12.3333H10.7923V11.5625C10.7923 11.1364 10.4476 10.7916 10.0215 10.7916H3.85482C3.42875 10.7916 3.08398 11.1364 3.08398 11.5625V21.6044C3.08398 23.2928 4.45703 24.6666 6.14624 24.6666H10.0215C10.4476 24.6666 10.7923 24.3219 10.7923 23.8958V22.3257L13.3201 24.1638C14.8693 25.2907 16.685 25.8545 18.5007 25.8545C20.3163 25.8545 22.132 25.2907 23.6812 24.1638L26.0761 22.4223L26.209 22.5418V23.8958C26.209 24.3219 26.5538 24.6666 26.9798 24.6666H30.8551C32.5443 24.6666 33.9173 23.2928 33.9173 21.6044V11.5625C33.9173 11.1364 33.5726 10.7916 33.1465 10.7916ZM18.0475 12.4741C18.7641 12.2226 19.3377 12.4206 20.2802 12.7962L26.209 15.1677V20.4202L26.1791 20.4419L19.4823 14.4215C19.2594 14.2212 18.9418 14.1663 18.6617 14.2875C18.6196 14.3055 17.5868 14.7527 15.8464 15.6944C15.1298 16.0806 14.2596 16.2281 13.984 15.7584C13.8696 15.5657 13.838 15.3782 13.8877 15.1855C13.984 14.8106 14.377 14.4042 14.9506 14.0647L18.0475 12.4741ZM6.14624 23.125H9.25065V12.3333H4.62565V21.6044C4.62565 22.443 5.30766 23.125 6.14624 23.125ZM22.7749 22.9172C20.2185 24.7765 16.7828 24.7765 14.2264 22.9172L10.7923 20.4202V13.875H12.8718C12.6503 14.1705 12.4785 14.4783 12.3957 14.8009C12.2421 15.3933 12.3325 15.9955 12.6562 16.5428C13.3608 17.7344 14.9355 17.9399 16.5811 17.0509C17.6034 16.4968 18.3787 16.1182 18.8274 15.9067L24.9042 21.3689L22.7749 22.9172ZM30.8551 23.125C31.6936 23.125 32.3757 22.443 32.3757 21.6044V12.3333H27.7507V23.125H30.8551Z" fill="#257FA4"/>
</svg>
