<svg width="37" height="37" viewBox="0 0 37 37" fill="none" xmlns="http://www.w3.org/2000/svg">
<path fill-rule="evenodd" clip-rule="evenodd" d="M26.5835 4.62537C29.3487 4.62537 31.5939 6.82592 31.5939 9.54847C31.5939 12.8566 29.8698 15.5312 27.0405 17.6102C26.0682 18.3247 25.0306 18.9178 23.993 19.3978C23.7505 19.51 23.5193 19.6107 23.3016 19.7002L22.8551 19.8755L22.5836 19.9719C22.4279 20.0228 22.2599 20.0228 22.1041 19.9719L21.7021 19.826C21.397 19.7086 21.0584 19.5661 20.6948 19.3978C19.6571 18.9178 18.6195 18.3247 17.6472 17.6102C14.8179 15.5312 13.0939 12.8566 13.0939 9.54847C13.0939 6.8264 15.3401 4.62537 18.1043 4.62537C19.8886 4.62537 21.4563 5.54156 22.3441 6.92301C23.2321 5.54166 24.8 4.62537 26.5835 4.62537ZM11.5431 20.0098C11.9688 20.0098 12.3139 20.3542 12.3139 20.779L12.3124 21.5467L16.6394 21.5482C17.4417 21.5482 18.2144 21.8309 18.8244 22.341L19.0452 22.5428C19.3444 22.8413 19.7347 23.0277 20.151 23.0749L20.361 23.0867H25.4377C26.577 23.0867 27.523 23.9081 27.7147 24.9895L30.263 23.7973C31.4739 23.1796 33.0201 23.4924 33.6345 24.7634C34.2122 25.9585 33.884 27.2099 32.7778 28.0457L32.5613 28.1974L26.09 31.5472C24.4515 32.3925 21.1626 32.6104 19.2487 32.1098L18.9067 32.0074L12.3124 30.6949L12.3139 31.5483C12.3139 31.9731 11.9688 32.3175 11.5431 32.3175H6.63136C4.67184 32.3175 3.08398 30.7318 3.08398 28.776V20.779C3.08398 20.3542 3.4291 20.0098 3.85482 20.0098H11.5431ZM16.6394 23.0867L12.3124 23.0853V29.1255L19.3046 30.5244C20.7573 31.0151 23.6347 30.899 25.1063 30.3059L25.3811 30.181L31.784 26.8711C32.3613 26.4937 32.5157 25.99 32.2459 25.4319C32.0695 25.0668 31.5827 24.9354 31.101 25.1094L30.941 25.1787L27.1379 26.9589C26.7683 27.3587 26.2587 27.6279 25.6865 27.6889L25.4377 27.7021H20.8127C20.387 27.7021 20.0419 27.3577 20.0419 26.9329C20.0419 26.5553 20.3145 26.2412 20.6741 26.176L20.8127 26.1637H25.4377C25.6031 26.1637 25.7562 26.1118 25.8817 26.0235C25.9358 25.9123 26.0187 25.816 26.1248 25.7437L26.1215 25.7501L26.232 25.6827C26.1941 25.7005 26.1583 25.7209 26.1248 25.7437C26.1783 25.6389 26.2085 25.5202 26.2085 25.3944C26.2085 25.0166 25.9362 24.7027 25.5764 24.6376L25.4377 24.6252H20.361C19.4584 24.6252 18.5932 24.2674 17.9551 23.6306C17.656 23.3321 17.2656 23.1457 16.8494 23.0986L16.6394 23.0867ZM4.62565 21.5482H10.7723V30.7791H6.63136C5.52355 30.7791 4.62565 29.8823 4.62565 28.776V21.5482ZM23.1147 9.54847C23.1147 7.68242 24.6645 6.16384 26.5835 6.16384C28.5034 6.16384 30.0522 7.68185 30.0522 9.54847C30.0522 12.298 28.5965 14.5562 26.1264 16.3714C25.2439 17.0199 24.2942 17.5627 23.3445 18.0021C23.2623 18.0401 23.1829 18.0762 23.1064 18.1102L22.6847 18.291L22.3439 18.4251L22.003 18.291L21.5813 18.1102L21.3432 18.0021C20.3936 17.5627 19.4439 17.0199 18.5614 16.3714C16.0912 14.5562 14.6355 12.298 14.6355 9.54847C14.6355 7.68242 16.1853 6.16384 18.1043 6.16384C20.0242 6.16384 21.573 7.68185 21.573 9.54847C21.573 9.97331 21.9182 10.3177 22.3439 10.3177C22.5567 10.3177 22.7494 10.2316 22.8889 10.0924C23.0284 9.9532 23.1147 9.76089 23.1147 9.54847Z" fill="#257FA4"/>
</svg>
