<svg width="37" height="37" viewBox="0 0 37 37" fill="none" xmlns="http://www.w3.org/2000/svg">
<path fill-rule="evenodd" clip-rule="evenodd" d="M33.7285 4.35978C33.9685 4.08418 33.9848 3.66807 33.7484 3.37258C33.4825 3.04015 32.9974 2.98625 32.6649 3.25219L25.3967 9.06675L21.2407 6.29607L21.1106 6.22625C20.8413 6.11351 20.5256 6.16172 20.301 6.36132L13.8495 12.096L10.503 9.41886L10.3822 9.33946C10.0883 9.18357 9.71944 9.2327 9.47642 9.47572L3.30976 15.6424L3.22056 15.7491C3.01244 16.0496 3.04217 16.4649 3.30976 16.7325C3.61079 17.0335 4.09885 17.0335 4.39988 16.7325L10.0787 11.0537L13.3941 13.706L13.5095 13.7825C13.7901 13.9342 14.1421 13.8986 14.3878 13.6802L20.8806 7.90884L25.0106 10.6622L25.1351 10.7296C25.3928 10.8398 25.695 10.8024 25.9197 10.6227L33.628 4.45603L33.7285 4.35978ZM30.0632 10.7916C30.4416 10.7916 30.7563 11.0643 30.8216 11.4239L30.834 11.5624V30.0624C30.834 30.4882 30.4889 30.8333 30.0632 30.8333C29.6847 30.8333 29.37 30.5606 29.3047 30.201L29.2923 30.0624V11.5624C29.2923 11.1367 29.6374 10.7916 30.0632 10.7916ZM23.1132 12.9656C23.048 12.606 22.7332 12.3333 22.3548 12.3333C21.9291 12.3333 21.584 12.6784 21.584 13.1041V30.0624L21.5964 30.201C21.6617 30.5606 21.9764 30.8333 22.3548 30.8333C22.7805 30.8333 23.1257 30.4882 23.1257 30.0624V13.1041L23.1132 12.9656ZM14.6465 16.9583C15.0249 16.9583 15.3396 17.231 15.4049 17.5906L15.4173 17.7291V30.0624C15.4173 30.4882 15.0722 30.8333 14.6465 30.8333C14.2681 30.8333 13.9533 30.5606 13.8881 30.201L13.8757 30.0624V17.7291C13.8757 17.3034 14.2208 16.9583 14.6465 16.9583ZM7.69657 20.6739C7.6313 20.3143 7.31657 20.0416 6.93815 20.0416C6.51243 20.0416 6.16732 20.3867 6.16732 20.8124V30.0624L6.17974 30.201C6.245 30.5606 6.55973 30.8333 6.93815 30.8333C7.36387 30.8333 7.70898 30.4882 7.70898 30.0624V20.8124L7.69657 20.6739ZM33.9173 33.1458C33.9173 32.7201 33.5722 32.3749 33.1465 32.3749H3.85482L3.71626 32.3874C3.35667 32.4526 3.08398 32.7674 3.08398 33.1458C3.08398 33.5715 3.4291 33.9166 3.85482 33.9166H33.1465L33.285 33.9042C33.6446 33.8389 33.9173 33.5242 33.9173 33.1458Z" fill="#257FA4"/>
</svg>
