<svg width="37" height="37" viewBox="0 0 37 37" fill="none" xmlns="http://www.w3.org/2000/svg">
<path fill-rule="evenodd" clip-rule="evenodd" d="M32.375 10.8317C32.375 8.25536 30.2863 6.16663 27.7099 6.16663H9.29471C6.71634 6.16663 4.625 8.25739 4.625 10.8363V21.5386C4.625 24.1026 6.6922 26.1841 9.25 26.2081V30.0625C9.25 30.7492 10.0803 31.0931 10.5659 30.6075L14.9651 26.2083H27.7053C30.2847 26.2083 32.375 24.118 32.375 21.5386V10.8317ZM9.29471 7.70829H27.7099C29.4348 7.70829 30.8333 9.1068 30.8333 10.8317V21.5386C30.8333 23.2666 29.4333 24.6666 27.7053 24.6666H14.6458C14.4414 24.6666 14.2453 24.7478 14.1008 24.8924L10.7917 28.2015V25.4375C10.7917 25.0117 10.4466 24.6666 10.0208 24.6666H9.29471C7.56768 24.6666 6.16667 23.266 6.16667 21.5386V10.8363C6.16667 9.10893 7.56768 7.70829 9.29471 7.70829ZM18.5003 20.8118C18.8787 20.8118 19.1935 21.0845 19.2587 21.4441L19.2711 21.5827V22.3541C19.2711 22.7798 18.926 23.125 18.5003 23.125C18.1219 23.125 17.8072 22.8523 17.7419 22.4927L17.7295 22.3541V21.5827C17.7295 21.157 18.0746 20.8118 18.5003 20.8118ZM19.1932 9.31181C16.7966 8.88676 14.6485 10.7275 14.6485 13.1357C14.6485 13.5615 14.9936 13.9066 15.4193 13.9066C15.845 13.9066 16.1901 13.5615 16.1901 13.1357C16.1901 11.6788 17.4798 10.5737 18.9246 10.8299C19.8431 10.9921 20.6103 11.7682 20.7725 12.7032C20.9522 13.7336 20.4734 14.7117 19.6104 15.1927L19.3708 15.337C18.3612 15.9941 17.7302 17.056 17.7302 18.2371V19.27L17.7427 19.4086C17.8079 19.7682 18.1227 20.0409 18.5011 20.0409C18.9268 20.0409 19.2719 19.6957 19.2719 19.27V18.2371L19.284 18.0331C19.3564 17.4269 19.7486 16.8799 20.3604 16.5397L20.5928 16.3993C21.8759 15.5619 22.5683 14.0277 22.2914 12.4391C22.0188 10.8672 20.7534 9.58737 19.1932 9.31181Z" fill="#257FA4"/>
</svg>
