<svg width="37" height="37" viewBox="0 0 37 37" fill="none" xmlns="http://www.w3.org/2000/svg">
<path fill-rule="evenodd" clip-rule="evenodd" d="M21.3593 6.39318C21.0587 6.09165 20.5707 6.09084 20.2691 6.39137L4.62565 21.9809V17.7039L4.61323 17.5653C4.54796 17.2057 4.23324 16.933 3.85482 16.933C3.4291 16.933 3.08398 17.2782 3.08398 17.7039V23.8705L3.0964 24.0091C3.16167 24.3687 3.4764 24.6414 3.85482 24.6414H10.0215L10.16 24.629C10.5196 24.5637 10.7923 24.249 10.7923 23.8705L10.7799 23.732C10.7146 23.3724 10.3999 23.0997 10.0215 23.0997L5.6894 23.0986L21.3575 7.4833L21.4468 7.37669C21.6555 7.07661 21.6264 6.6612 21.3593 6.39318ZM33.9049 12.9628C33.8396 12.6032 33.5249 12.3306 33.1465 12.3306H26.9798L26.8413 12.343C26.4817 12.4082 26.209 12.723 26.209 13.1014L26.2214 13.2399C26.2867 13.5995 26.6014 13.8722 26.9798 13.8722L31.3119 13.8718L15.651 29.5137L15.5617 29.6204C15.3534 29.9207 15.3829 30.3361 15.6503 30.6038L15.757 30.6931C16.0573 30.9014 16.4727 30.8719 16.7404 30.6045L32.3757 14.9879V19.2681L32.3881 19.4066C32.4533 19.7662 32.7681 20.0389 33.1465 20.0389C33.5722 20.0389 33.9173 19.6938 33.9173 19.2681V13.1014L33.9049 12.9628Z" fill="#257FA4"/>
</svg>
